<?xml version="1.0" encoding="utf-8"?>
<!-- Generated by IcoMoon.io -->
<svg version="1.1" xmlns="http://www.w3.org/2000/svg" xmlns:xlink="http://www.w3.org/1999/xlink" width="24" height="288" viewBox="0 0 24 288">
<svg id="icon-reward-expert" width="24" height="24" viewBox="0 0 24 24" x="0" y="0">
<path fill="#3498db" d="M24 12c0 6.627-5.373 12-12 12s-12-5.373-12-12c0-6.627 5.373-12 12-12s12 5.373 12 12z"></path>
<path fill="#fff" d="M17.31 7.603c0.014-0.336-0.265-0.616-0.6-0.602l-0.405 0.014c-0.126 0-0.251 0.056-0.349 0.14l-3.183 2.66-5.78-0.476c-0.154-0.014-0.307 0.042-0.419 0.154l-0.572 0.574 4.594 2.212-2.122 2.394-1.634 0.084c-0.070 0-0.14 0.028-0.182 0.084l-0.223 0.224 1.899 0.938 0.935 1.904 0.223-0.224c0.056-0.056 0.084-0.112 0.084-0.182l0.070-1.652 2.415-2.142 2.22 4.607 0.572-0.574c0.112-0.112 0.168-0.266 0.154-0.42l-0.475-5.797 2.653-3.192c0.056-0.084 0.098-0.196 0.112-0.322l0.014-0.406z"></path>
</svg>
<svg id="icon-data-routes" width="24" height="24" viewBox="0 0 24 24" x="0" y="24">
<path fill="#34495e" d="M24 12c0 6.627-5.373 12-12 12s-12-5.373-12-12c0-6.627 5.373-12 12-12s12 5.373 12 12z"></path>
<path fill="#fff" d="M17.31 7.603c0.014-0.336-0.265-0.616-0.6-0.602l-0.405 0.014c-0.126 0-0.251 0.056-0.349 0.14l-3.183 2.66-5.78-0.476c-0.154-0.014-0.307 0.042-0.419 0.154l-0.572 0.574 4.594 2.212-2.122 2.394-1.634 0.084c-0.070 0-0.14 0.028-0.182 0.084l-0.223 0.224 1.899 0.938 0.935 1.904 0.223-0.224c0.056-0.056 0.084-0.112 0.084-0.182l0.070-1.652 2.415-2.142 2.22 4.607 0.572-0.574c0.112-0.112 0.168-0.266 0.154-0.42l-0.475-5.797 2.653-3.192c0.056-0.084 0.098-0.196 0.112-0.322l0.014-0.406z"></path>
</svg>
<svg id="icon-personal-concierge" width="24" height="24" viewBox="0 0 24 24" x="0" y="48">
<path fill="#9b59b6" d="M24 12c0 6.627-5.373 12-12 12s-12-5.373-12-12c0-6.627 5.373-12 12-12s12 5.373 12 12z"></path>
<path fill="#fff" d="M12 9c-2.685 0-4.862 1.63-4.862 5h9.724c0-3.371-2.177-5-4.863-5zM6 15h12v1h-12v-1zM13.035 7h-2.069c-0.229 0-0.414 0.188-0.414 0.421v0.051c0 0.233 0.185 0.421 0.414 0.421h0.465v1.107h1.138v-1.107h0.466c0.228 0 0.414-0.188 0.414-0.421v-0.051c0-0.233-0.186-0.421-0.414-0.421z"></path>
</svg>
<svg id="icon-direct-routes" width="24" height="24" viewBox="0 0 24 24" x="0" y="72">
<path fill="#1abc9c" d="M24 12c0 6.627-5.373 12-12 12s-12-5.373-12-12c0-6.627 5.373-12 12-12s12 5.373 12 12z"></path>
<path fill="#fff" d="M17.31 7.603c0.014-0.336-0.265-0.616-0.6-0.602l-0.405 0.014c-0.126 0-0.251 0.056-0.349 0.14l-3.183 2.66-5.78-0.476c-0.154-0.014-0.307 0.042-0.419 0.154l-0.572 0.574 4.594 2.212-2.122 2.394-1.634 0.084c-0.070 0-0.14 0.028-0.182 0.084l-0.223 0.224 1.899 0.938 0.935 1.904 0.223-0.224c0.056-0.056 0.084-0.112 0.084-0.182l0.070-1.652 2.415-2.142 2.22 4.607 0.572-0.574c0.112-0.112 0.168-0.266 0.154-0.42l-0.475-5.797 2.653-3.192c0.056-0.084 0.098-0.196 0.112-0.322l0.014-0.406z"></path>
</svg>
<svg id="icon-about-us" width="24" height="24" viewBox="0 0 24 24" x="0" y="96">
<path fill="#31bb63" d="M24 12c0 6.627-5.373 12-12 12s-12-5.373-12-12c0-6.627 5.373-12 12-12s12 5.373 12 12z"></path>
<path fill="#fff" d="M7.024 15.824c0.121-0.875 0.597-1.596 1.458-2.205 0.733-0.518 1.531-0.824 2.576-0.985 0.416-0.064 1.506-0.064 1.922 0 1.045 0.161 1.844 0.467 2.576 0.985 0.861 0.609 1.338 1.329 1.458 2.205l0.024 0.176h-10.040l0.024-0.176zM11.539 11.391c-0.471-0.1-0.879-0.318-1.219-0.652-1.191-1.17-0.875-3.162 0.619-3.899 0.388-0.192 0.652-0.254 1.081-0.254s0.693 0.062 1.081 0.254c0.618 0.305 1.079 0.865 1.272 1.546 0.087 0.306 0.088 0.928 0.002 1.236-0.235 0.846-0.895 1.511-1.723 1.734-0.282 0.076-0.837 0.094-1.113 0.036v0z"></path>
</svg>
<svg id="icon-careers" width="24" height="24" viewBox="0 0 24 24" x="0" y="120">
<path fill="#673ab7" d="M24 12c0 6.627-5.373 12-12 12s-12-5.373-12-12c0-6.627 5.373-12 12-12s12 5.373 12 12z"></path>
<path fill="#fff" d="M12 6.5l1.717 3.44 3.783 0.579-2.722 2.705 0.622 3.798-3.399-1.768-3.399 1.768 0.622-3.798-2.722-2.705 3.783-0.579z"></path>
</svg>
<svg id="icon-contact-us" width="24" height="24" viewBox="0 0 24 24" x="0" y="144">
<path fill="#795548" d="M24 12c0 6.627-5.373 12-12 12s-12-5.373-12-12c0-6.627 5.373-12 12-12s12 5.373 12 12z"></path>
<path fill="#fff" d="M13.981 14.251c-0.529 0.466-1.222 0.749-1.981 0.749-1.654 0-3-1.346-3-3s1.346-3 3-3c1.654 0 3 1.346 3 3 0 0.222-0.024 0.438-0.070 0.646-0.030 0.185 0.009 0.372 0.113 0.53 0.11 0.168 0.278 0.283 0.474 0.324 0.403 0.080 0.802-0.176 0.888-0.581 0.064-0.307 0.095-0.612 0.095-0.919 0-2.482-2.018-4.5-4.5-4.5s-4.5 2.018-4.5 4.5c0 2.482 2.018 4.5 4.5 4.5 0.531 0 1.052-0.091 1.548-0.273 0.389-0.141 0.819 0.057 0.962 0.448 0.142 0.389-0.058 0.82-0.448 0.962-0.66 0.241-1.354 0.364-2.062 0.364v0c-3.308 0-6-2.692-6-6s2.692-6 6-6c3.308 0 6 2.692 6 6 0 0.407-0.041 0.814-0.122 1.209-0.258 1.23-1.454 2.014-2.666 1.759-0.483-0.1-0.911-0.351-1.231-0.716zM12 11c-0.552 0-1 0.449-1 1s0.449 1 1 1c0.552 0 1-0.448 1-1s-0.448-1-1-1z"></path>
</svg>
<svg id="icon-press-resources" width="24" height="24" viewBox="0 0 24 24" x="0" y="168">
<path fill="#00bcd4" d="M24 12c0 6.627-5.373 12-12 12s-12-5.373-12-12c0-6.627 5.373-12 12-12s12 5.373 12 12z"></path>
<path fill="#fff" d="M12.25 6c0.452 0 0.818 0.321 0.818 0.716v5.69l1.347-1.178c0.174-0.159 0.423-0.239 0.673-0.216 0.315 0.030 0.582 0.215 0.686 0.477s0.026 0.552-0.2 0.746l-2.727 2.386c-0.154 0.135-0.362 0.211-0.58 0.211s-0.426-0.076-0.58-0.211l-2.727-2.386c-0.228-0.177-0.325-0.45-0.251-0.709s0.306-0.46 0.602-0.523c0.296-0.063 0.608 0.024 0.808 0.225l1.313 1.148v-5.66c0-0.395 0.366-0.716 0.818-0.716v0zM16.068 15.068c0.452 0 0.818 0.321 0.818 0.716s-0.366 0.716-0.818 0.716h-7.636c-0.452 0-0.818-0.321-0.818-0.716s0.366-0.716 0.818-0.716h7.636z"></path>
</svg>
<svg id="icon-reward-cards" width="24" height="24" viewBox="0 0 24 24" x="0" y="192">
<path fill="#e74c3c" d="M24 12c0 6.627-5.373 12-12 12s-12-5.373-12-12c0-6.627 5.373-12 12-12s12 5.373 12 12z"></path>
<path fill="#fff" d="M12 9c-2.685 0-4.862 1.63-4.862 5h9.724c0-3.371-2.177-5-4.863-5zM6 15h12v1h-12v-1zM13.035 7h-2.069c-0.229 0-0.414 0.188-0.414 0.421v0.051c0 0.233 0.185 0.421 0.414 0.421h0.465v1.107h1.138v-1.107h0.466c0.228 0 0.414-0.188 0.414-0.421v-0.051c0-0.233-0.186-0.421-0.414-0.421z"></path>
</svg>
<svg id="icon-recommended-by-experts" width="24" height="24" viewBox="0 0 24 24" x="0" y="216">
<path fill="#2ecc71" d="M24 12c0 6.627-5.373 12-12 12s-12-5.373-12-12c0-6.627 5.373-12 12-12s12 5.373 12 12z"></path>
<path fill="#fff" d="M12 9c-2.685 0-4.862 1.63-4.862 5h9.724c0-3.371-2.177-5-4.863-5zM6 15h12v1h-12v-1zM13.035 7h-2.069c-0.229 0-0.414 0.188-0.414 0.421v0.051c0 0.233 0.185 0.421 0.414 0.421h0.465v1.107h1.138v-1.107h0.466c0.228 0 0.414-0.188 0.414-0.421v-0.051c0-0.233-0.186-0.421-0.414-0.421z"></path>
</svg>
<svg id="icon-cards-by-issuer" width="24" height="24" viewBox="0 0 24 24" x="0" y="240">
<path fill="#3498db" d="M24 12c0 6.627-5.373 12-12 12s-12-5.373-12-12c0-6.627 5.373-12 12-12s12 5.373 12 12z"></path>
<path fill="#fff" d="M12 9c-2.685 0-4.862 1.63-4.862 5h9.724c0-3.371-2.177-5-4.863-5zM6 15h12v1h-12v-1zM13.035 7h-2.069c-0.229 0-0.414 0.188-0.414 0.421v0.051c0 0.233 0.185 0.421 0.414 0.421h0.465v1.107h1.138v-1.107h0.466c0.228 0 0.414-0.188 0.414-0.421v-0.051c0-0.233-0.186-0.421-0.414-0.421z"></path>
</svg>
<svg id="icon-card-categories" width="24" height="24" viewBox="0 0 24 24" x="0" y="264">
<path fill="#f39c12" d="M24 12c0 6.627-5.373 12-12 12s-12-5.373-12-12c0-6.627 5.373-12 12-12s12 5.373 12 12z"></path>
<path fill="#fff" d="M12 9c-2.685 0-4.862 1.63-4.862 5h9.724c0-3.371-2.177-5-4.863-5zM6 15h12v1h-12v-1zM13.035 7h-2.069c-0.229 0-0.414 0.188-0.414 0.421v0.051c0 0.233 0.185 0.421 0.414 0.421h0.465v1.107h1.138v-1.107h0.466c0.228 0 0.414-0.188 0.414-0.421v-0.051c0-0.233-0.186-0.421-0.414-0.421z"></path>
</svg>
</svg>
