
<svg width="50px" height="30px" viewBox="0 0 50 30" version="1.1" xmlns="http://www.w3.org/2000/svg" xmlns:xlink="http://www.w3.org/1999/xlink">
    <!-- Generator: Sketch 41 (35326) - http://www.bohemiancoding.com/sketch -->
    <desc>Created with Sketch.</desc>
    <defs></defs>
    <g id="AmericanExpress-dark" stroke="none" stroke-width="1" fill="none" fill-rule="evenodd">
        <rect id="Rectangle" fill="#0072CE" x="0" y="0" width="50" height="30" rx="2"></rect>
        <path d="M42.2036806,17.3327915 L40.4371602,17.3327915 C40.2607895,17.3327915 40.1436167,17.3393764 40.0449127,17.4058348 C39.9426617,17.4713176 39.9032779,17.5685053 39.9032779,17.6967883 C39.9032779,17.8493376 39.9896286,17.9531102 40.1152408,17.9979849 C40.2174918,18.03347 40.327326,18.0438351 40.4887749,18.0438351 L41.0140955,18.0578584 C41.5441862,18.0709062 41.8980284,18.1617529 42.1137829,18.3833215 C42.1530444,18.4141728 42.1766502,18.4488043 42.2036806,18.4834358 L42.2036806,17.3327915 Z M42.2036806,19.9988084 C41.9682343,20.342075 41.5094502,20.5160862 40.888361,20.5160862 L39.0165319,20.5160862 L39.0165319,19.648957 L40.8807778,19.648957 C41.0657103,19.648957 41.195114,19.6246905 41.2730254,19.5488426 C41.3405404,19.4862864 41.3876296,19.3954397 41.3876296,19.2850822 C41.3876296,19.1672863 41.3405404,19.0737568 41.2692338,19.0176635 C41.1989056,18.9559609 41.0965323,18.9279142 40.9277448,18.9279142 C40.0176376,18.8970629 38.8822357,18.9559609 38.8822357,17.676302 C38.8822357,17.0897612 39.2557698,16.4723691 40.2728981,16.4723691 L42.2035583,16.4723691 L42.2035583,15.6677961 L40.4097628,15.6677961 C39.8684196,15.6677961 39.4751936,15.7970546 39.1966942,15.9980149 L39.1966942,15.6677961 L36.5434277,15.6677961 C36.119135,15.6677961 35.6210895,15.7726662 35.3855208,15.9980149 L35.3855208,15.6677961 L30.6474837,15.6677961 L30.6474837,15.9980149 C30.2704026,15.726816 29.634147,15.6677961 29.3404812,15.6677961 L26.2152212,15.6677961 L26.2152212,15.9980149 C25.9169076,15.709988 25.2534992,15.6677961 24.849143,15.6677961 L21.3514496,15.6677961 L20.5510543,16.531389 L19.8014175,15.6677961 L14.5765875,15.6677961 L14.5765875,21.3102941 L19.7030805,21.3102941 L20.5278154,20.4330437 L21.3047273,21.3102941 L24.4647233,21.3130988 L24.4647233,19.9857606 L24.7753902,19.9857606 C25.1946682,19.9922236 25.6891667,19.9753956 26.1254458,19.7873611 L26.1254458,21.3101722 L28.7318676,21.3101722 L28.7318676,19.8395522 L28.8576021,19.8395522 C29.0180726,19.8395522 29.0338505,19.8461371 29.0338505,20.006003 L29.0338505,21.3100502 L36.9516978,21.3100502 C37.4543911,21.3100502 37.979834,21.1817673 38.270809,20.9489801 L38.270809,21.3100502 L40.7823184,21.3100502 C41.3049482,21.3100502 41.815347,21.237007 42.2036806,21.0499481 L42.2036806,19.9988084 L42.2036806,19.9988084 Z M38.3373455,18.3833215 C38.5260696,18.5780627 38.6272198,18.8238977 38.6272198,19.2400856 C38.6272198,20.1100195 38.082085,20.5160862 37.104585,20.5160862 L35.2167333,20.5160862 L35.2167333,19.648957 L37.0970018,19.648957 C37.2808335,19.648957 37.4112157,19.6246905 37.4929187,19.5488426 C37.5595775,19.4862864 37.6074006,19.3954397 37.6074006,19.2850822 C37.6074006,19.1672863 37.5556636,19.0737568 37.4891271,19.0176635 C37.4150073,18.9559609 37.3127563,18.9279142 37.1439688,18.9279142 C36.2375309,18.8970629 35.1023736,18.9559609 35.1023736,17.676302 C35.1023736,17.0897612 35.4719938,16.4723691 36.4881437,16.4723691 L38.4312795,16.4723691 L38.4312795,17.3330354 L36.6532619,17.3330354 C36.4770135,17.3330354 36.3624092,17.3396203 36.2649283,17.4060787 C36.1587634,17.4715615 36.1193796,17.5687492 36.1193796,17.6970321 C36.1193796,17.8495815 36.2095219,17.9533541 36.3314648,17.9982288 C36.4337158,18.0337139 36.54355,18.0440789 36.7086682,18.0440789 L37.2304418,18.0581023 C37.7566186,18.0709062 38.1177994,18.161631 38.3373455,18.3833215 L38.3373455,18.3833215 Z M29.5912163,18.1335843 C29.4615679,18.2102858 29.3012198,18.2168707 29.112618,18.2168707 L27.9351416,18.2168707 L27.9351416,17.308647 L29.1286406,17.308647 C29.3012198,17.308647 29.4739212,17.3123053 29.5912163,17.3816903 C29.7168285,17.4471731 29.7919267,17.5724075 29.7919267,17.7454431 C29.7919267,17.9184787 29.7168285,18.0578584 29.5912163,18.1335843 L29.5912163,18.1335843 Z M30.176591,18.6368388 C30.3923455,18.716223 30.5687162,18.8585292 30.6513977,18.9763252 C30.7882623,19.1737492 30.8080765,19.3580035 30.8119904,19.7144398 L30.8119904,20.5160862 L29.8388936,20.5160862 L29.8388936,20.010149 C29.8388936,19.7668748 29.8623771,19.4066583 29.6822148,19.2186238 C29.54058,19.0737568 29.3247032,19.0391253 28.9711056,19.0391253 L27.9352639,19.0391253 L27.9352639,20.5160862 L26.961311,20.5160862 L26.961311,16.4722472 L29.1990911,16.4722472 C29.689798,16.4722472 30.0471872,16.4938309 30.365315,16.6630863 C30.6712118,16.8473406 30.8636052,17.0997605 30.8636052,17.5610669 C30.8634828,18.2065056 30.4317293,18.5358708 30.176591,18.6368388 L30.176591,18.6368388 Z M31.4010344,16.4722472 L34.6360063,16.4722472 L34.6360063,17.3085251 L32.3663034,17.3085251 L32.3663034,18.0437131 L34.5806,18.0437131 L34.5806,18.8687724 L32.3663034,18.8687724 L32.3663034,19.6733454 L34.6360063,19.6770036 L34.6360063,20.5160862 L31.4010344,20.5160862 L31.4010344,16.4722472 L31.4010344,16.4722472 Z M24.8614963,18.3384468 L23.6089216,18.3384468 L23.6089216,17.308647 L24.8727488,17.308647 C25.2226771,17.308647 25.4655844,17.4508313 25.4655844,17.804463 C25.4655844,18.1541925 25.2339296,18.3384468 24.8614963,18.3384468 L24.8614963,18.3384468 Z M22.6435304,20.1483093 L21.155387,18.5011174 L22.6435304,16.9062386 L22.6435304,20.1483093 L22.6435304,20.1483093 Z M18.8004341,19.6733454 L16.41735,19.6733454 L16.41735,18.8687724 L18.5452959,18.8687724 L18.5452959,18.0437131 L16.41735,18.0437131 L16.41735,17.3085251 L18.8474011,17.3085251 L19.9075824,18.4869721 L18.8004341,19.6733454 L18.8004341,19.6733454 Z M26.5061962,17.804463 C26.5061962,18.9277923 25.6655609,19.1597259 24.8183209,19.1597259 L23.6089216,19.1597259 L23.6089216,20.5160862 L21.7249838,20.5160862 L20.5314847,19.1774074 L19.2911411,20.5160862 L15.4518364,20.5160862 L15.4518364,16.4722472 L19.3502167,16.4722472 L20.5427372,17.7977562 L21.77562,16.4722472 L24.8727488,16.4722472 C25.6419551,16.4722472 26.5061962,16.6845481 26.5061962,17.804463 L26.5061962,17.804463 Z" id="EXPRESS" fill="#FFFFFF"></path>
        <path d="M10.8274252,11.8121136 L10.1640168,10.2004068 L9.50440004,11.8121136 L10.8274252,11.8121136 Z M25.4422232,11.1703331 C25.3090279,11.2509367 25.1514928,11.2536194 24.9627688,11.2536194 L23.7852924,11.2536194 L23.7852924,10.3556389 L24.9787914,10.3556389 C25.1477012,10.3556389 25.3239497,10.3631993 25.4384316,10.4285602 C25.5641661,10.4874581 25.6419551,10.6128145 25.6419551,10.785972 C25.6419551,10.9626659 25.5679577,11.1048502 25.4422232,11.1703331 L25.4422232,11.1703331 Z M33.8422157,11.8121136 L33.1714688,10.2004068 L32.5043911,11.8121136 L33.8422157,11.8121136 L33.8422157,11.8121136 Z M18.184115,13.5566151 L17.1904702,13.5566151 L17.1868009,10.3902704 L15.781339,13.5566151 L14.9303074,13.5566151 L13.5211762,10.3874657 L13.5211762,13.5566151 L11.5497868,13.5566151 L11.1773535,12.6548544 L9.15924178,12.6548544 L8.78301683,13.5566151 L7.73029638,13.5566151 L9.46599476,9.51375165 L10.9060704,9.51375165 L12.5545618,13.3415095 L12.5545618,9.51375165 L14.1365168,9.51375165 L15.4049918,12.2563481 L16.5702372,9.51375165 L18.1839927,9.51375165 L18.1839927,13.5566151 L18.184115,13.5566151 Z M22.1443841,13.5566151 L18.9064767,13.5566151 L18.9064767,9.51375165 L22.1443841,9.51375165 L22.1443841,10.3556389 L19.8757819,10.3556389 L19.8757819,11.084364 L22.0899562,11.084364 L22.0899562,11.9130815 L19.8757819,11.9130815 L19.8757819,12.7204592 L22.1443841,12.7204592 L22.1443841,13.5566151 L22.1443841,13.5566151 Z M26.7097197,10.6025713 C26.7097197,11.2471565 26.2782107,11.58018 26.0267418,11.6801724 C26.238827,11.7606541 26.4199678,11.9028384 26.5061962,12.0206343 C26.6430609,12.2217166 26.6666667,12.4013371 26.6666667,12.7624072 L26.6666667,13.5566151 L25.6890444,13.5566151 L25.6853751,13.0467758 C25.6853751,12.8035016 25.7087363,12.4536502 25.5323656,12.2591528 C25.3907308,12.1169684 25.174854,12.0861171 24.8259042,12.0861171 L23.7854147,12.0861171 L23.7854147,13.5566151 L22.8162318,13.5566151 L22.8162318,9.51375165 L25.0455726,9.51375165 C25.5409272,9.51375165 25.9058997,9.52679944 26.2192574,9.70739547 C26.5258881,9.8879915 26.7097197,10.15163 26.7097197,10.6025713 L26.7097197,10.6025713 Z M28.2608526,13.5566151 L27.2718555,13.5566151 L27.2718555,9.51375165 L28.2608526,9.51375165 L28.2608526,13.5566151 L28.2608526,13.5566151 Z M39.7344904,13.5566151 L38.3609513,13.5566151 L36.5237358,10.5222116 L36.5237358,13.5566151 L34.5497779,13.5566151 L34.1725745,12.6548544 L32.1591106,12.6548544 L31.7931596,13.5566151 L30.6589809,13.5566151 C30.1878435,13.5566151 29.5913386,13.4527206 29.2535189,13.109454 C28.9128861,12.7661874 28.7356592,12.3012227 28.7356592,11.5660347 C28.7356592,10.9664461 28.8415795,10.4183171 29.2581667,9.98517924 C29.5715244,9.66252083 30.0622313,9.51375165 30.7301652,9.51375165 L31.668526,9.51375165 L31.668526,10.3800273 L30.749857,10.3800273 C30.3961371,10.3800273 30.1964052,10.4324623 30.0040119,10.6195213 C29.8387713,10.7897522 29.7253902,11.111557 29.7253902,11.5353053 C29.7253902,11.9684431 29.8117409,12.2807365 29.9919032,12.4847454 C30.1411212,12.6447332 30.412282,12.6932661 30.6674202,12.6932661 L31.1027208,12.6932661 L32.468799,9.5138736 L33.9211056,9.5138736 L35.5621362,13.3378513 L35.5621362,9.5138736 L37.0379262,9.5138736 L38.7417017,12.3295133 L38.7417017,9.5138736 L39.7344904,9.5138736 L39.7344904,13.5566151 L39.7344904,13.5566151 Z M7.71904388,14.3507011 L9.37511858,14.3507011 L9.7485304,13.4527206 L10.5845179,13.4527206 L10.9569512,14.3507011 L14.2154066,14.3507011 L14.2154066,13.6641679 L14.5062593,14.3536277 L16.1978039,14.3536277 L16.4886566,13.6539248 L16.4886566,14.3507011 L24.5865439,14.3507011 L24.5827523,12.8766668 L24.7394311,12.8766668 C24.849143,12.880447 24.8811882,12.8905682 24.8811882,13.0711642 L24.8811882,14.3507011 L29.0694427,14.3507011 L29.0694427,14.0075565 C29.4072624,14.1880305 29.9327053,14.3507011 30.6241226,14.3507011 L32.3861176,14.3507011 L32.7631987,13.4527206 L33.5991862,13.4527206 L33.9679502,14.3507011 L37.3633926,14.3507011 L37.3633926,13.4977172 L37.877583,14.3507011 L40.5984868,14.3507011 L40.5984868,8.71210526 L37.9057142,8.71210526 L37.9057142,9.37803026 L37.5286331,8.71210526 L34.7655324,8.71210526 L34.7655324,9.37803026 L34.4192734,8.71210526 L30.6869898,8.71210526 C30.0622313,8.71210526 29.5130603,8.79904987 29.0694427,9.04134853 L29.0694427,8.71210526 L26.4938429,8.71210526 L26.4938429,9.04134853 C26.2115519,8.79161142 25.8268876,8.71210526 25.3991702,8.71210526 L15.9895103,8.71210526 L15.3581471,10.168458 L14.7097828,8.71210526 L11.7459718,8.71210526 L11.7459718,9.37803026 L11.4203831,8.71210526 L8.89272873,8.71210526 L7.71892157,11.3929991 L7.71892157,14.3507011 L7.71904388,14.3507011 Z" id="AMERICAN" fill="#FFFFFF"></path>
    </g>
</svg>