
<svg width="146px" height="35px" viewBox="0 0 146 35" version="1.1" xmlns="http://www.w3.org/2000/svg" xmlns:xlink="http://www.w3.org/1999/xlink">
    <!-- Generator: Sketch 41 (35326) - http://www.bohemiancoding.com/sketch -->
    <desc>Created with Sketch.</desc>
    <defs></defs>
    <g id="logotype" stroke="none" stroke-width="1" fill="none" fill-rule="evenodd">
        <rect id="baseline" x="0" y="0" width="146" height="34"></rect>
        <g id="logo" transform="translate(0.000000, 6.000000)">
            <path d="M140.777357,5.21772569 C137.580058,5.45396181 134.419767,5.96242708 127.303787,6.44199653 L117.018392,7.08936458 C117.1796,7.76968403 117.302281,8.33644792 117.437128,8.58789236 C117.993753,9.62256597 119.875531,10.1315382 122.844197,10.1345799 C123.755176,10.1361007 125.788024,10.1229201 128.894579,10.1234271 L126.808503,21.5600938 L129.022329,21.5600938 L134.150579,10.124441 C139.385287,10.124441 140.676475,10.1300174 140.842753,10.124441 C143.045933,10.0570174 145.909156,9.56173264 145.839704,8.15800347 C145.738822,6.11349653 143.666433,4.97642014 140.777357,5.21772569" id="Fill-1" fill="#FEFEFE"></path>
            <path d="M117.164848,1.96664028 L115.678487,1.96055694 C115.678487,1.96055694 116.172758,3.93307778 116.654862,5.80471667 L120.987716,5.52082778 L117.164848,1.96664028 Z" id="Fill-3" fill="#FEFEFE"></path>
            <path d="M93.2087319,21.4463861 L95.3769333,21.4463861 L96.0217667,18.737275 L98.8900583,18.737275 C100.94876,18.737275 103.028753,17.4263167 103.552426,15.2221222 C104.133892,12.7730736 102.633843,11.6491778 100.573114,11.6491778 L95.5376347,11.6491778 L93.2087319,21.4463861 Z M99.8137111,13.4067542 C100.883364,13.4067542 101.584975,14.0394208 101.307169,15.2069139 C101.047614,16.3019139 100.034739,16.9807125 98.9650861,16.9807125 L96.4394889,16.9807125 L97.2871,13.4067542 L99.8137111,13.4067542 Z" id="Fill-5" fill="#FEFEFE"></path>
            <path d="M94.040425,11.6490764 L91.5609597,11.6490764 L87.9195778,15.2352014 L85.9967375,11.6490764 L83.5846958,11.6490764 L89.2026542,21.4462847 L91.7125361,21.4462847 L91.75005,21.2891319 L89.1235708,16.5623819 L94.0089944,11.7915278 L94.040425,11.6490764 Z M85.3123625,17.2933958 L81.2132097,21.2891319 L81.1777236,21.4462847 L83.6865917,21.4462847 L85.4390986,19.7079722 C85.9399597,19.2121806 86.0352653,18.5024583 85.6798972,17.9078125 L85.3123625,17.2933958 Z" id="Fill-7" fill="#FEFEFE"></path>
            <polygon id="Fill-9" fill="#FEFEFE" points="80.0598604 21.4463861 80.4806243 19.6751222 74.2198604 19.6751222 74.780541 17.3122542 79.9113257 17.3122542 80.3320896 15.5394694 75.2033326 15.5394694 75.7052076 13.4214556 81.9679993 13.4214556 82.3877493 11.6491778 74.050541 11.6491778 71.723159 21.4463861"></polygon>
            <polygon id="Fill-11" fill="#FEFEFE" points="111.673575 21.4463861 112.095353 19.6751222 105.833575 19.6751222 106.395269 17.3122542 111.52504 17.3122542 111.945804 15.5394694 106.818061 15.5394694 107.319936 13.4214556 113.581714 13.4214556 114.001464 11.6491778 105.664256 11.6491778 103.337887 21.4463861"></polygon>
            <path d="M60.0969458,21.4463861 L64.6366333,21.4463861 C67.7518069,21.4463861 70.4862653,19.7182125 71.2360361,16.5624833 C71.9923972,13.3783653 70.0766542,11.6628653 66.9645222,11.6481639 L62.4228069,11.6481639 L60.0969458,21.4463861 Z M66.4525083,13.4067542 C68.3880222,13.4067542 69.4744042,14.5169625 68.9882444,16.5624833 C68.5091819,18.5796153 66.8981125,19.6888097 64.9595569,19.6888097 L62.6843903,19.6888097 L64.1743,13.4067542 L66.4525083,13.4067542 Z" id="Fill-13" fill="#93D9F8"></path>
            <path d="M36.275525,21.4463861 L38.4776917,21.4463861 L39.7643167,19.4870458 L44.5513931,19.4870458 L44.8920597,21.4463861 L47.0916917,21.4463861 L45.3432403,11.6491778 L42.8034486,11.6491778 L36.275525,21.4463861 Z M43.5973236,13.6526222 L44.3643306,17.989025 L40.6768167,17.989025 L43.5973236,13.6526222 Z" id="Fill-15" fill="#93D9F8"></path>
            <path d="M30.7622507,21.4463861 L33.1170076,21.4463861 L39.6449313,11.6491778 L37.2729382,11.6491778 L32.5248965,18.8528583 L31.4157021,11.6491778 L29.0604382,11.6491778 C29.6084451,14.9204903 30.1518896,18.1857194 30.7622507,21.4463861 L30.7622507,21.4463861 Z M28.551466,16.383025 L26.6200076,19.1838931 L25.3110771,11.6491778 L22.9715285,11.6491778 L24.718459,21.4463861 L27.0737229,21.4463861 L28.4977299,19.3892056 C28.8662785,18.8584347 28.9788201,18.281025 28.8399174,17.6640736 L28.551466,16.383025 Z" id="Fill-17" fill="#93D9F8"></path>
            <polygon id="Fill-19" fill="#93D9F8" points="19.8852 21.4463861 20.3064708 19.6751222 14.0457069 19.6751222 14.6063875 17.3122542 19.7361583 17.3122542 20.1564153 15.5394694 15.0271514 15.5394694 15.5300403 13.4214556 21.7902972 13.4214556 22.2130889 11.6491778 13.8753736 11.6491778 11.5479917 21.4463861"></polygon>
            <path d="M0,21.4463861 L2.16870833,21.4463861 L2.77906944,18.8792194 L3.00719444,17.916025 L3.38486806,16.3313167 L4.078875,13.4067542 L6.7753125,13.4067542 C7.76689583,13.4067542 8.36052778,13.9111639 8.13138889,14.8763861 C7.91492361,15.7843236 7.071875,16.3313167 6.08079861,16.3313167 L3.38486806,16.3313167 C4.51788889,18.7393028 6.63134028,22.423775 10.0086042,21.3662889 L10.5844931,19.6173306 C10.2093542,19.7602889 9.70950694,19.8464694 9.35211111,19.8464694 C8.25305556,19.8464694 7.48503472,18.7681986 6.706875,17.8719208 C8.45481944,17.6285875 10.0172222,16.4610944 10.4040208,14.831775 C10.9753472,12.4268306 9.03679167,11.6491778 6.96034722,11.6491778 L2.32738194,11.6491778 L0,21.4463861 Z" id="Fill-21" fill="#93D9F8"></path>
            <path d="M48.3074965,21.4463861 L50.4767118,21.4463861 L51.0875799,18.8792194 L51.3157049,17.916025 L51.6918576,16.3313167 L52.3868785,13.4067542 L55.0838229,13.4067542 C56.0748993,13.4067542 56.6680243,13.9111639 56.4383785,14.8763861 C56.223434,15.7843236 55.3798785,16.3313167 54.3888021,16.3313167 L51.6918576,16.3313167 C52.8243715,18.7393028 54.9393437,22.423775 58.3166076,21.3662889 L58.8919896,19.6173306 C58.5158368,19.7602889 58.0164965,19.8464694 57.6601146,19.8464694 C56.5590312,19.8464694 55.7930382,18.7681986 55.0138646,17.8719208 C56.7602882,17.6285875 58.3247187,16.4610944 58.7115174,14.831775 C59.2828437,12.4268306 57.3453021,11.6491778 55.2678437,11.6491778 L50.6353854,11.6491778 L48.3074965,21.4463861 Z" id="Fill-23" fill="#93D9F8"></path>
            <path d="M114.015253,21.4463861 L116.183454,21.4463861 L116.793308,18.8792194 L117.023461,17.916025 L117.399614,16.3313167 L118.093621,13.4067542 L120.790565,13.4067542 C121.780628,13.4067542 122.375781,13.9111639 122.146135,14.8763861 C121.930176,15.7843236 121.086621,16.3313167 120.095544,16.3313167 L117.399614,16.3313167 C118.5301,18.7393028 120.645072,22.423775 124.022336,21.3662889 L124.599746,19.6173306 C124.224607,19.7602889 123.723239,19.8464694 123.365843,19.8464694 C122.266788,19.8464694 121.499781,18.7681986 120.720607,17.8719208 C122.468044,17.6285875 124.031461,16.4610944 124.417753,14.831775 C124.989586,12.4268306 123.051031,11.6491778 120.975093,11.6491778 L116.342128,11.6491778 L114.015253,21.4463861 Z" id="Fill-25" fill="#FEFEFE"></path>
            <polygon id="Fill-27" fill="#93D9F8" points="132.919718 4.57659306 129.8451 0.317245833 128.069274 0.317245833 128.683183 4.95274583"></polygon>
            <path d="M6.61527014,0.859676389 L5.85586736,0.859676389 L5.26730486,3.24890556 L5.90402708,3.24890556 C6.93160347,3.24890556 7.72902708,2.81344028 7.81115208,1.8761 C7.86387431,1.27283611 7.50901319,0.859676389 6.61527014,0.859676389 M5.73014514,4.08637778 L5.07111736,4.08637778 L4.38319375,6.84516944 L5.17605486,6.84516944 C6.39373542,6.84516944 7.20535347,6.37573889 7.29406875,5.35931528 C7.36352014,4.56696111 6.86924931,4.08637778 5.73014514,4.08637778 M7.28747847,3.6509125 C7.98706181,3.95305139 8.38805486,4.47773889 8.31708264,5.29290556 C8.17817986,6.87862778 6.82108958,7.70444028 4.97834653,7.70444028 L3.16855486,7.70444028 L5.05996458,-0.000101388889 L6.73541597,-0.000101388889 C8.26588125,-0.000101388889 8.92896458,0.714690278 8.84075625,1.73060694 C8.75660347,2.69075972 8.14015903,3.3497875 7.28747847,3.6509125" id="Fill-29" fill="#FEFEFE"></path>
            <path d="M12.6694035,4.42192431 C12.7789035,3.55099375 12.5593965,2.99284792 11.9003688,2.99284792 C11.3305632,2.99284792 10.7490979,3.51753542 10.4129938,4.42192431 L12.6694035,4.42192431 Z M10.1529313,5.60563958 C10.0748618,6.49887569 10.4439174,7.00125764 11.2707438,7.00125764 C11.9297715,7.00125764 12.4311396,6.75589653 13.084591,6.30877153 L13.0070285,7.20200764 C12.3556049,7.62682708 11.8025285,7.81591736 11.0431257,7.81591736 C9.82544514,7.81591736 9.05083403,7.09047986 9.17604931,5.66140347 C9.35702847,3.59560486 10.7242576,2.26639653 12.0088549,2.26639653 C13.1373132,2.26639653 13.7395632,3.03695208 13.6275285,4.32154931 C13.6037021,4.58921597 13.5413479,4.92379931 13.476966,5.14736181 L10.2152854,5.14736181 C10.191459,5.29285486 10.1666188,5.44899375 10.1529313,5.60563958 L10.1529313,5.60563958 Z" id="Fill-31" fill="#FEFEFE"></path>
            <path d="M16.3279201,3.18249583 L15.5938646,6.20844722 C15.5761215,6.28651667 15.5543229,6.40919722 15.5462118,6.49892639 C15.5218785,6.77774583 15.6729479,6.96785 16.0749549,6.96785 C16.2873646,6.96785 16.4455313,6.9450375 16.5824063,6.91208611 L16.511941,7.71559306 C16.3639132,7.74955833 16.0470729,7.7936625 15.6790313,7.7936625 C14.8856632,7.7936625 14.4562813,7.47023194 14.5186354,6.75544028 C14.531309,6.60994722 14.5703438,6.42035 14.604309,6.28651667 L15.3672604,3.18249583 L14.6078576,3.18249583 L14.8121563,2.37848194 L15.5604063,2.37848194 L15.9953646,0.6031625 L17.0016493,0.457669444 L16.5322188,2.37848194 L17.6713229,2.37848194 L17.6013646,3.18249583 L16.3279201,3.18249583 Z" id="Fill-33" fill="#FEFEFE"></path>
            <path d="M21.7513639,3.22705625 C21.5348986,3.14898681 21.3600028,3.10386875 21.0249125,3.10386875 C20.0084889,3.10386875 18.9363014,4.25412569 18.7933431,5.88496597 C18.7330167,6.57643819 18.9540444,6.97844514 19.4351347,6.97844514 C19.9035514,6.97844514 20.4916069,6.52118125 21.1034889,5.90676458 L21.7513639,3.22705625 Z M19.1380653,7.81591736 C18.2671347,7.81591736 17.7074681,7.19085486 17.8113917,6.00764653 C18.0080861,3.75174375 19.6085097,2.31151458 21.2170444,2.31151458 C21.8091556,2.31151458 22.2684472,2.42304236 22.8641069,2.63545208 L21.9627597,6.29761875 L21.8400792,7.70438958 L20.9909472,7.70438958 L21.0122389,6.82230625 C20.4414194,7.34699375 19.8082458,7.81591736 19.1380653,7.81591736 L19.1380653,7.81591736 Z" id="Fill-35" fill="#FEFEFE"></path>
        </g>
    </g>
</svg>