
<svg width="50px" height="30px" viewBox="0 0 50 30" version="1.1" xmlns="http://www.w3.org/2000/svg" xmlns:xlink="http://www.w3.org/1999/xlink">
    <!-- Generator: Sketch 41 (35326) - http://www.bohemiancoding.com/sketch -->
    <desc>Created with Sketch.</desc>
    <defs>
        <linearGradient x1="50%" y1="0.333333333%" x2="50%" y2="98.9648889%" id="linearGradient-1">
            <stop stop-color="#FFFFFF" offset="0%"></stop>
            <stop stop-color="#CECECE" offset="100%"></stop>
        </linearGradient>
        <linearGradient x1="50%" y1="0.333333333%" x2="50%" y2="98.9648889%" id="linearGradient-2">
            <stop stop-color="#FFFFFF" offset="0%"></stop>
            <stop stop-color="#E6E6E6" offset="100%"></stop>
        </linearGradient>
        <linearGradient x1="75.5914533%" y1="90.0743187%" x2="40.9723369%" y2="35.872213%" id="linearGradient-3">
            <stop stop-color="#F89F20" offset="0%"></stop>
            <stop stop-color="#F79A20" offset="25.02%"></stop>
            <stop stop-color="#F68D20" offset="53.31%"></stop>
            <stop stop-color="#F58720" offset="61.96%"></stop>
            <stop stop-color="#F48120" offset="72.32%"></stop>
            <stop stop-color="#F37521" offset="100%"></stop>
        </linearGradient>
        <linearGradient x1="70.1228324%" y1="89.3373245%" x2="19.5272502%" y2="-9.55511974%" id="linearGradient-4">
            <stop stop-color="#F58720" stop-opacity="0" offset="0%"></stop>
            <stop stop-color="#E16F27" stop-opacity="0.2704" offset="35.87%"></stop>
            <stop stop-color="#D4602C" stop-opacity="0.5299" offset="70.3%"></stop>
            <stop stop-color="#D05B2E" stop-opacity="0.74" offset="98.16%"></stop>
        </linearGradient>
        <ellipse id="path-5" cx="3.53680556" cy="3.838" rx="3.36388889" ry="3.22933333"></ellipse>
    </defs>
    <g id="discover" stroke="none" stroke-width="1" fill="none" fill-rule="evenodd">
        <g id="Group">
            <path d="M50,27 C50,28.65 48.59375,30 46.875,30 L3.125,30 C1.40625,30 0,28.65 0,27 L0,3 C0,1.35 1.40625,0 3.125,0 L46.875,0 C48.59375,0 50,1.35 50,3 L50,27 Z" id="Shape" fill="url(#linearGradient-1)"></path>
            <g id="Shape">
                <path d="M50,27 C50,28.65 48.59375,30 46.875,30 L3.125,30 C1.40625,30 0,28.65 0,27 L0,3 C0,1.35 1.40625,0 3.125,0 L46.875,0 C48.59375,0 50,1.35 50,3 L50,27 Z" fill="url(#linearGradient-2)"></path>
                <path d="M46.875,0.1 C48.5409722,0.1 49.8958333,1.40066667 49.8958333,3 L49.8958333,27 C49.8958333,28.5993333 48.5409722,29.9 46.875,29.9 L3.125,29.9 C1.45902778,29.9 0.104166667,28.5993333 0.104166667,27 L0.104166667,3 C0.104166667,1.40066667 1.45902778,0.1 3.125,0.1 L46.875,0.1 L46.875,0.1 Z M46.875,0 L3.125,0 C1.40625,0 0,1.35 0,3 L0,27 C0,28.65 1.40625,30 3.125,30 L46.875,30 C48.59375,30 50,28.65 50,27 L50,3 C50,1.35 48.59375,0 46.875,0 L46.875,0 Z" fill="#999999"></path>
            </g>
            <path d="M46.875,0.1 C48.5409722,0.1 49.8958333,1.40066667 49.8958333,3 L49.8958333,27 C49.8958333,28.5993333 48.5409722,29.9 46.875,29.9 L3.125,29.9 C1.45902778,29.9 0.104166667,28.5993333 0.104166667,27 L0.104166667,3 C0.104166667,1.40066667 1.45902778,0.1 3.125,0.1 L46.875,0.1 L46.875,0.1 Z M46.875,0 L3.125,0 C1.40625,0 0,1.35 0,3 L0,27 C0,28.65 1.40625,30 3.125,30 L46.875,30 C48.59375,30 50,28.65 50,27 L50,3 C50,1.35 48.59375,0 46.875,0 L46.875,0 Z" id="Shape" fill="#CECECE"></path>
        </g>
        <path d="M49.8958333,14.098 C43.7701389,19.9366667 32.2506944,27.5426667 13.8298611,29.9 L46.875,29.9 C48.5409722,29.9 49.8958333,28.5993333 49.8958333,27 L49.8958333,14.098 Z" id="Shape" fill="#F48120"></path>
        <g id="Group" transform="translate(5.555556, 10.000000)">
            <path d="M1.82916667,0.780666667 L0.01875,0.780666667 L0.01875,6.85066667 L1.81944444,6.85066667 C2.77708333,6.85066667 3.46875,6.634 4.07569444,6.15 C4.79722222,5.57666667 5.22361111,4.71333333 5.22361111,3.82 C5.22361111,2.02866667 3.82916667,0.780666667 1.82916667,0.780666667 Z M3.27013889,5.34066667 C2.88263889,5.67666667 2.37916667,5.82333333 1.58194444,5.82333333 L1.25069444,5.82333333 L1.25069444,1.80933333 L1.58194444,1.80933333 C2.37916667,1.80933333 2.8625,1.946 3.27013889,2.3 C3.69652778,2.66466667 3.95347222,3.22933333 3.95347222,3.81133333 C3.95277778,4.394 3.69652778,4.976 3.27013889,5.34066667 Z" id="Shape" fill="#231F20"></path>
            <rect id="Rectangle-path" fill="#231F20" x="5.79097222" y="0.780666667" width="1.23333333" height="6.07"></rect>
            <path d="M10.0402778,3.11 C9.3,2.84733333 9.08263889,2.674 9.08263889,2.346 C9.08263889,1.96333333 9.47013889,1.67333333 10.0013889,1.67333333 C10.3708333,1.67333333 10.6743056,1.81933333 10.9958333,2.16466667 L11.6409722,1.35333333 C11.1104167,0.908 10.4763889,0.680666667 9.78263889,0.680666667 C8.66388889,0.680666667 7.81041667,1.42666667 7.81041667,2.42 C7.81041667,3.256 8.20763889,3.68466667 9.36597222,4.08466667 C9.84861111,4.248 10.0944444,4.35733333 10.21875,4.43066667 C10.4652778,4.58533333 10.5881944,4.804 10.5881944,5.05866667 C10.5881944,5.55066667 10.1805556,5.91466667 9.63055556,5.91466667 C9.04236111,5.91466667 8.56875,5.632 8.28472222,5.10533333 L7.48819444,5.842 C8.05625,6.64266667 8.73888889,6.99733333 9.67708333,6.99733333 C10.9590278,6.99733333 11.8576389,6.17933333 11.8576389,5.004 C11.8590278,4.03933333 11.4430556,3.60266667 10.0402778,3.11 Z" id="Shape" fill="#231F20"></path>
            <path d="M12.2479167,3.82 C12.2479167,5.604 13.7076389,6.988 15.5854167,6.988 C16.1166667,6.988 16.5708333,6.888 17.1319444,6.634 L17.1319444,5.24 C16.6388889,5.714 16.2020833,5.90466667 15.6430556,5.90466667 C14.4006944,5.90466667 13.5194444,5.04 13.5194444,3.81066667 C13.5194444,2.64533333 14.4291667,1.726 15.5861111,1.726 C16.1743056,1.726 16.6194444,1.92733333 17.1326389,2.40933333 L17.1326389,1.016 C16.5909722,0.752666667 16.1458333,0.643333333 15.6152778,0.643333333 C13.7458333,0.643333333 12.2479167,2.05533333 12.2479167,3.82 Z" id="Shape" fill="#231F20"></path>
            <polygon id="Shape" fill="#231F20" points="26.9111111 4.858 25.225 0.780666667 23.8777778 0.780666667 26.5611111 7.00666667 27.225 7.00666667 29.95625 0.780666667 28.6194444 0.780666667"></polygon>
            <polygon id="Shape" fill="#231F20" points="30.5138889 6.85066667 34.0118056 6.85066667 34.0118056 5.82333333 31.7465278 5.82333333 31.7465278 4.18466667 33.9284722 4.18466667 33.9284722 3.15666667 31.7465278 3.15666667 31.7465278 1.80933333 34.0118056 1.80933333 34.0118056 0.780666667 30.5138889 0.780666667"></polygon>
            <path d="M38.8958333,2.57266667 C38.8958333,1.436 38.0805556,0.780666667 36.6583333,0.780666667 L34.8291667,0.780666667 L34.8291667,6.85066667 L36.0611111,6.85066667 L36.0611111,4.412 L36.2222222,4.412 L37.9291667,6.85066667 L39.4458333,6.85066667 L37.4555556,4.29333333 C38.3840278,4.112 38.8958333,3.502 38.8958333,2.57266667 Z M36.4208333,3.57533333 L36.0604167,3.57533333 L36.0604167,1.73666667 L36.4402778,1.73666667 C37.2083333,1.73666667 37.6256944,2.04533333 37.6256944,2.63666667 C37.6263889,3.24666667 37.2090278,3.57533333 36.4208333,3.57533333 Z" id="Shape" fill="#231F20"></path>
            <g transform="translate(17.361111, 0.000000)">
                <g id="Oval">
                    <ellipse fill="url(#linearGradient-3)" cx="3.5375" cy="3.83666667" rx="3.36388889" ry="3.22933333"></ellipse>
                    <ellipse fill="url(#linearGradient-4)" opacity="0.65" cx="3.5375" cy="3.83666667" rx="3.36388889" ry="3.22933333"></ellipse>
                </g>
                <g opacity="0.5" id="Clipped">
                    <g>
                        <mask id="mask-6" fill="white">
                            <use xlink:href="#path-5"></use>
                        </mask>
                        <g id="SVGID_5_"></g>
                        <ellipse id="Oval" fill="#FFFFFF" opacity="0" mask="url(#mask-6)" cx="4.24444444" cy="4.63466667" rx="3.36388889" ry="3.22933333"></ellipse>
                    </g>
                </g>
            </g>
        </g>
    </g>
</svg>